HIERARCHY
ROOT Hips
{
	OFFSET 0.000000 0.000000 0.000000
	CHANNELS 6 Xposition Yposition Zposition Xrotation Yrotation Zrotation
	JOINT LeftUpLeg_virtual
	{
		OFFSET 0.000000 0.000000 0.000000
		CHANNELS 3 Xrotation Yrotation Zrotation
		JOINT LeftUpLeg
		{
			OFFSET 13.026900 -6.336304 -1.092800
			CHANNELS 3 Xrotation Yrotation Zrotation
			JOINT LeftLeg
			{
				OFFSET 0.524474 -46.096886 9.782700
				CHANNELS 3 Xrotation Yrotation Zrotation
				JOINT LeftFoot
				{
					OFFSET -0.524474 -53.427422 -12.948200
					CHANNELS 3 Xrotation Yrotation Zrotation
					JOINT LeftToeBase
					{
						OFFSET 0.192200 -14.009700 16.364100
						CHANNELS 3 Xrotation Yrotation Zrotation
						JOINT LeftToe_End
						{
							OFFSET -1.784700 -0.561700 9.474800
							CHANNELS 3 Xrotation Yrotation Zrotation
							End Site
							{
								OFFSET 0 0 0
							}
						}
					}
				}
			}
		}
	}
	JOINT RightUpLeg_virtual
	{
		OFFSET 0.000000 0.000000 0.000000
		CHANNELS 3 Xrotation Yrotation Zrotation
		JOINT RightUpLeg
		{
			OFFSET -12.883000 -6.336304 -1.092800
			CHANNELS 3 Xrotation Yrotation Zrotation
			JOINT RightLeg
			{
				OFFSET -0.524587 -46.096825 9.782800
				CHANNELS 3 Xrotation Yrotation Zrotation
				JOINT RightFoot
				{
					OFFSET 0.524587 -53.427383 -12.948300
					CHANNELS 3 Xrotation Yrotation Zrotation
					JOINT RightToeBase
					{
						OFFSET -0.192200 -14.009700 16.364100
						CHANNELS 3 Xrotation Yrotation Zrotation
						JOINT RightToe_End
						{
							OFFSET 1.784700 -0.561700 9.474800
							CHANNELS 3 Xrotation Yrotation Zrotation
							End Site
							{
								OFFSET 0 0 0
							}
						}
					}
				}
			}
		}
	}
	JOINT Spine_virtual
	{
		OFFSET 0.000000 0.000000 0.000000
		CHANNELS 3 Xrotation Yrotation Zrotation
		JOINT Spine
		{
			OFFSET 0.072000 7.257294 -0.789700
			CHANNELS 3 Xrotation Yrotation Zrotation
			JOINT Spine1
			{
				OFFSET 0.000000 12.508769 -0.658067
				CHANNELS 3 Xrotation Yrotation Zrotation
				JOINT Spine1_split
				{
					OFFSET 0.000000 12.508769 -0.658067
					CHANNELS 3 Xrotation Yrotation Zrotation
					JOINT Spine2
					{
						OFFSET 0.000000 12.508769 -0.658067
						CHANNELS 3 Xrotation Yrotation Zrotation
						JOINT Neck_virtual
						{
							OFFSET 0.000000 0.000000 0.000000
							CHANNELS 3 Xrotation Yrotation Zrotation
							JOINT Neck
							{
								OFFSET 0.000000 14.033295 7.520400
								CHANNELS 3 Xrotation Yrotation Zrotation
								JOINT Head
								{
									OFFSET 0.000000 8.198502 5.703100
									CHANNELS 3 Xrotation Yrotation Zrotation
									JOINT HeadTop_End
									{
										OFFSET 0.000000 17.760803 13.332701
										CHANNELS 3 Xrotation Yrotation Zrotation
										End Site
										{
											OFFSET 0 0 0
										}
									}
								}
							}
						}
						JOINT LeftShoulder_virtual
						{
							OFFSET 0.000000 0.000000 0.000000
							CHANNELS 3 Xrotation Yrotation Zrotation
							JOINT LeftShoulder
							{
								OFFSET 6.292450 5.785301 -0.669000
								CHANNELS 3 Xrotation Yrotation Zrotation
								JOINT LeftShoulder_split
								{
									OFFSET 6.292450 5.785301 -0.669000
									CHANNELS 3 Xrotation Yrotation Zrotation
									JOINT LeftArm
									{
										OFFSET 13.907140 -6.093903 1.965100
										CHANNELS 3 Xrotation Yrotation Zrotation
										JOINT LeftForeArm
										{
											OFFSET 34.140198 0.000000 0.000000
											CHANNELS 3 Xrotation Yrotation Zrotation
											JOINT LeftHand
											{
												OFFSET 40.960209 0.000000 0.000000
												CHANNELS 3 Xrotation Yrotation Zrotation
												End Site
												{
													OFFSET 0 0 0
												}
											}
										}
									}
								}
							}
						}
						JOINT RightShoulder_virtual
						{
							OFFSET 0.000000 0.000000 0.000000
							CHANNELS 3 Xrotation Yrotation Zrotation
							JOINT RightShoulder
							{
								OFFSET -6.292450 5.785301 -0.669000
								CHANNELS 3 Xrotation Yrotation Zrotation
								JOINT RightShoulder_split
								{
									OFFSET -6.292450 5.785301 -0.669000
									CHANNELS 3 Xrotation Yrotation Zrotation
									JOINT RightArm
									{
										OFFSET -13.907140 -6.093903 1.965100
										CHANNELS 3 Xrotation Yrotation Zrotation
										JOINT RightForeArm
										{
											OFFSET -34.140198 0.000000 0.000000
											CHANNELS 3 Xrotation Yrotation Zrotation
											JOINT RightHand
											{
												OFFSET -40.960209 0.000000 0.000000
												CHANNELS 3 Xrotation Yrotation Zrotation
												End Site
												{
													OFFSET 0 0 0
												}
											}
										}
									}
								}
							}
						}
					}
				}
			}
		}
	}
}
MOTION
Frames: 11
Frame Time: 0.03333333
-155.698166 42.650814 -0.174564 0.000000 0.000000 0.000000 0.536791 4.148179 -45.569461 -104.358884 4.222918 2.380528 20.868869 1.361305 1.338566 33.945712 -2.800737 32.933352 -5.925546 1.220178 3.300726 0.000000 0.000000 0.000000 3.127749 9.325679 -47.556234 -109.877130 2.032983 -30.841443 104.393882 12.385933 2.383390 20.709842 26.351408 24.513940 -30.900213 1.636604 0.697106 0.000000 0.000000 0.000000 -0.432107 3.832052 -49.200028 23.872824 -2.157295 -12.390787 4.252223 1.199592 -2.875928 1.805594 0.731636 2.769047 0.000000 0.000000 0.000000 4.992473 1.079959 -3.170583 -2.909142 -1.009047 1.252477 -3.888673 18.576274 3.567797 0.000000 0.000000 0.000000 4.603143 1.398331 -2.872632 0.308414 -23.587095 -12.747690 -3.121082 -2.964336 -2.220381 -40.768921 33.952570 -10.079204 3.657279 -69.126002 3.673000 0.000000 0.000000 0.000000 4.999059 1.063649 -3.232041 3.143576 9.805643 0.008125 8.700849 7.326932 -0.917917 -44.430237 -33.924457 -9.901859 -2.067027 52.653812 0.609176 0.000000 0.000000 0.000000 
-154.702744 45.543373 -1.900017 0.000000 0.000000 0.000000 0.667602 2.792267 -48.785760 -106.871505 4.297801 5.752054 29.924859 3.893977 0.427541 30.665934 -1.680142 34.925093 -7.036934 1.098635 2.815824 0.000000 0.000000 0.000000 3.597304 8.033033 -50.720005 -104.440744 -5.179256 -27.809458 99.899918 11.585348 1.241015 17.481905 26.145329 22.755448 -29.001765 1.736445 0.651082 0.000000 0.000000 0.000000 -0.204301 3.401237 -51.488807 23.090805 -3.440180 -12.681934 4.396399 0.770274 -2.920019 1.850369 1.634132 2.456990 0.000000 0.000000 0.000000 4.773851 0.732693 -3.220897 -2.562609 -0.555022 1.529721 -3.826605 19.724910 3.933555 0.000000 0.000000 0.000000 4.732512 1.068552 -2.981776 1.369118 -22.309995 -11.383058 -3.364375 -3.932175 -2.101284 -43.429242 31.570319 -8.187764 3.137986 -66.277779 3.462288 0.000000 0.000000 0.000000 5.050004 0.700254 -3.347225 3.103209 9.529535 -1.091203 8.593747 6.227819 -1.263539 -44.648025 -38.788364 -12.197934 -1.882610 53.929306 0.641302 0.000000 0.000000 0.000000 
-153.773071 49.180809 -3.418129 0.000000 0.000000 0.000000 1.787428 0.512577 -52.615310 -109.493335 3.492823 9.017264 44.334710 6.624249 -1.010678 25.307500 0.387875 38.065587 -8.991360 0.912021 2.271260 0.000000 0.000000 0.000000 5.464182 6.283762 -54.461575 -99.271486 -11.926269 -23.415763 94.310139 10.416397 1.084754 15.107250 25.546516 19.521237 -26.228705 1.833850 0.811975 0.000000 0.000000 0.000000 1.170774 1.850989 -54.065045 22.428243 -4.814242 -12.343777 4.429154 0.231420 -2.874747 1.945337 2.612587 1.818643 0.000000 0.000000 0.000000 4.349525 0.235443 -3.112357 -2.228424 0.024728 1.828193 -4.170049 20.730584 4.708593 0.000000 0.000000 0.000000 4.700231 0.603894 -3.002545 2.343036 -20.740875 -9.618277 -3.333174 -4.412130 -2.277574 -47.131710 28.349134 -5.844684 2.186034 -62.700495 2.742806 0.000000 0.000000 0.000000 4.950765 0.242480 -3.302953 2.878274 8.748520 -1.622605 8.349256 4.815438 -1.648719 -45.811025 -44.575816 -13.439081 -1.835287 56.293306 0.907102 0.000000 0.000000 0.000000 
-152.933304 53.416439 -4.930340 0.000000 0.000000 0.000000 3.850559 -2.384036 -56.131383 -111.176635 2.220585 11.159335 60.807514 8.538710 -2.715944 17.917190 2.223171 41.721370 -10.494623 0.694556 1.585769 0.000000 0.000000 0.000000 8.185571 3.617430 -58.020019 -95.180687 -17.117407 -18.651472 87.621847 9.151191 1.671155 15.247718 25.119380 16.294786 -23.343789 1.938120 1.043446 0.000000 0.000000 0.000000 3.575828 -0.663942 -56.513272 21.851058 -6.264313 -11.633812 4.342788 -0.344618 -2.786840 1.818734 2.976357 1.012799 0.000000 0.000000 0.000000 3.807343 -0.351476 -2.908239 -1.889016 0.643231 2.125085 -4.970058 21.468350 5.882311 0.000000 0.000000 0.000000 4.533549 0.058876 -2.954706 3.126963 -19.015701 -7.522728 -2.611638 -4.354686 -2.396938 -51.295448 24.940849 -3.667347 1.064622 -59.613304 1.683157 0.000000 0.000000 0.000000 4.747871 -0.272187 -3.161913 2.509700 7.384959 -1.750055 8.089901 3.359917 -1.893078 -47.283583 -51.151000 -13.634218 -1.981246 59.846746 1.426544 0.000000 0.000000 0.000000 
-152.135956 57.973095 -6.813618 0.000000 0.000000 0.000000 6.760770 -5.268226 -58.706337 -111.664427 0.769519 11.979824 74.713882 8.889149 -3.598571 10.157817 2.695077 43.979598 -11.906522 0.377251 0.909886 0.000000 0.000000 0.000000 11.259907 0.290367 -60.703074 -92.794376 -20.151635 -14.440434 79.999820 8.317527 2.380420 18.077812 25.359352 15.382226 -21.092867 2.030129 1.129563 0.000000 0.000000 0.000000 6.773078 -3.639059 -58.312016 21.459082 -7.836840 -10.967068 4.192811 -0.886851 -2.721143 1.635651 2.464289 0.669365 0.000000 0.000000 0.000000 3.331760 -0.969223 -2.669713 -1.641907 1.214300 2.346631 -6.183201 21.782132 7.301383 0.000000 0.000000 0.000000 4.212030 -0.509344 -2.898993 3.630050 -17.688448 -5.258327 -1.333965 -3.635284 -2.415657 -56.089264 21.186782 -1.965552 0.303427 -56.647000 0.657811 0.000000 0.000000 0.000000 4.529054 -0.825686 -2.986943 2.062653 5.747849 -1.604906 8.146211 2.314285 -2.047139 -48.034224 -58.009616 -12.488702 -2.255039 63.605413 2.066229 0.000000 0.000000 0.000000 
-151.377792 62.563370 -9.198772 0.000000 0.000000 0.000000 10.694872 -7.693740 -59.941002 -110.867296 -1.233560 11.273988 84.220283 7.709968 -2.992761 3.912744 2.173319 43.480257 -14.877117 -0.148464 0.532716 0.000000 0.000000 0.000000 14.440871 -3.144507 -62.073825 -91.728382 -21.189221 -11.162748 72.114312 8.029558 3.045778 22.198241 26.114976 17.106432 -19.477647 2.087289 1.057715 0.000000 0.000000 0.000000 10.703960 -6.357454 -59.185891 21.366541 -9.484179 -10.517953 4.050846 -1.370865 -2.697559 1.508275 1.406689 0.408443 0.000000 0.000000 0.000000 2.988241 -1.577789 -2.455591 -1.635118 1.686765 2.505478 -7.729209 21.626947 8.767050 0.000000 0.000000 0.000000 3.884485 -1.075337 -2.867626 3.869338 -17.241523 -2.911338 0.080382 -2.611566 -2.369363 -61.285293 16.995167 -0.710077 -0.038502 -52.779594 -0.117199 0.000000 0.000000 0.000000 4.375220 -1.380360 -2.824722 1.638437 4.362691 -1.281330 8.153279 1.934071 -2.312009 -46.460395 -64.376445 -9.117761 -2.481274 66.226054 2.608064 0.000000 0.000000 0.000000 
-150.710739 66.716164 -11.920902 0.000000 0.000000 0.000000 15.115019 -9.306809 -59.667337 -109.108987 -4.339824 9.050025 89.556225 5.608232 -1.080380 0.261657 2.257032 39.839585 -20.056729 -0.653705 0.425239 0.000000 0.000000 0.000000 17.846893 -6.212639 -61.928492 -90.825410 -20.913706 -8.691848 64.891988 7.583464 3.858796 25.052678 26.022377 20.027556 -16.753834 2.076323 0.950294 0.000000 0.000000 0.000000 14.901014 -8.533317 -59.011960 21.799356 -11.126184 -10.366876 4.079754 -1.753255 -2.712096 1.401305 0.047628 0.506486 0.000000 0.000000 0.000000 2.857508 -2.140984 -2.286306 -2.020637 1.982627 2.550814 -9.493698 21.032183 10.019248 0.000000 0.000000 0.000000 3.690250 -1.607503 -2.865093 3.864079 -17.973590 -0.848578 1.037051 -1.529521 -2.113915 -66.442154 12.398922 -0.004712 0.330473 -47.524405 -0.351116 0.000000 0.000000 0.000000 4.372786 -1.873076 -2.669946 1.280154 3.857885 -0.742067 8.032448 2.302111 -2.418931 -40.637430 -68.933978 -2.169829 -2.378926 66.177068 2.659213 0.000000 0.000000 0.000000 
-150.053680 69.771675 -15.007816 0.000000 0.000000 0.000000 19.373024 -10.333385 -58.218367 -106.946371 -8.492557 6.445026 92.659726 4.071220 0.731622 -2.176034 4.199298 35.674372 -25.254061 -0.910670 -0.007901 0.000000 0.000000 0.000000 20.860472 -8.547349 -60.416213 -89.857395 -20.019129 -6.895622 59.216251 6.534987 4.844344 25.112958 24.002781 22.587142 -11.811844 2.047372 0.911057 0.000000 0.000000 0.000000 18.814005 -9.839292 -57.794472 22.895942 -12.586633 -10.426317 4.338436 -1.989015 -2.774003 1.776071 -0.711565 0.849515 0.000000 0.000000 0.000000 2.917265 -2.591832 -2.189013 -2.819526 2.163436 2.431787 -11.306229 20.082295 10.889461 0.000000 0.000000 0.000000 3.738384 -2.053438 -2.897604 3.644034 -19.939783 0.698429 1.116109 -0.454499 -1.998666 -71.036891 7.918859 0.303641 1.133085 -41.306385 -0.125439 0.000000 0.000000 0.000000 4.554101 -2.248419 -2.530903 1.044179 4.626761 0.054537 7.691050 3.271006 -2.548221 -30.724137 -70.641115 7.689574 -1.971522 63.461029 2.224202 0.000000 0.000000 0.000000 
-149.467453 71.303596 -17.857517 0.000000 0.000000 0.000000 23.027595 -10.780563 -55.729446 -105.144116 -12.908918 4.147044 95.825887 4.468888 0.972577 -5.368626 8.481295 33.940597 -27.538988 -0.697040 -1.489240 0.000000 0.000000 0.000000 23.422414 -9.849034 -57.970677 -89.140471 -18.560202 -5.948425 55.833337 5.245838 5.819362 22.618706 20.134631 24.052904 -6.059532 2.041150 0.953152 0.000000 0.000000 0.000000 21.801192 -10.234688 -55.830236 24.757759 -13.675690 -10.452086 4.776777 -2.066522 -2.885587 2.056774 -0.724608 1.250427 0.000000 0.000000 0.000000 3.165435 -2.857793 -2.155095 -3.898339 2.273148 2.173659 -12.992416 18.882169 11.235615 0.000000 0.000000 0.000000 4.005598 -2.331002 -2.937301 3.250421 -22.984112 1.570577 0.625015 0.242182 -1.947834 -74.509086 4.738362 0.680987 1.957283 -35.539271 0.346421 0.000000 0.000000 0.000000 4.853931 -2.437955 -2.431241 0.932171 6.659969 1.000736 7.199416 4.223988 -2.422991 -22.088598 -68.863108 14.976322 -1.733847 59.102856 1.696449 0.000000 0.000000 0.000000 
-148.905655 71.431900 -20.484432 0.000000 0.000000 0.000000 25.704657 -10.785952 -52.506239 -104.752993 -17.182316 2.392850 100.033776 5.841474 0.470748 -8.707920 14.013483 33.438465 -27.948205 -0.114685 -3.541986 0.000000 0.000000 0.000000 25.402483 -10.392627 -54.782591 -89.067873 -16.788614 -5.677447 55.069230 4.309331 6.573729 19.269067 15.198930 24.614694 -1.663532 2.017174 0.974086 0.000000 0.000000 0.000000 23.885931 -9.821970 -53.201091 27.220187 -14.241842 -10.296290 5.313797 -1.947321 -3.064445 1.946001 -0.472894 1.603238 0.000000 0.000000 0.000000 3.609488 -2.900827 -2.172003 -5.071436 2.357873 1.774420 -14.378448 17.589441 11.002174 0.000000 0.000000 0.000000 4.378982 -2.391564 -3.004478 2.687596 -26.821842 1.847704 -0.266396 0.846923 -2.115911 -76.958535 3.564983 1.352775 2.692391 -31.457468 0.919929 0.000000 0.000000 0.000000 5.156439 -2.451819 -2.384637 0.901093 9.605865 1.802012 7.013716 5.148732 -2.065645 -18.645317 -64.047032 15.665917 -1.840330 54.794516 1.246913 0.000000 0.000000 0.000000 
-148.640610 70.482735 -22.887585 0.000000 0.000000 0.000000 27.565271 -10.164861 -48.964031 -106.100835 -20.002291 2.285494 104.799042 7.049897 -0.373595 -11.416951 18.322172 33.146000 -30.328396 0.403476 -4.969019 0.000000 0.000000 0.000000 26.460914 -10.268083 -51.156092 -89.752955 -14.966833 -5.572451 55.616120 4.177833 6.988868 16.503272 10.346089 24.716103 0.192690 1.922058 0.858377 0.000000 0.000000 0.000000 25.274219 -8.470133 -50.086826 30.024057 -14.188080 -9.810661 5.833633 -1.679647 -3.263629 1.638959 -0.293400 1.753234 0.000000 0.000000 0.000000 4.167385 -2.716452 -2.233555 -6.098512 2.436320 1.247134 -15.379291 16.183916 10.330567 0.000000 0.000000 0.000000 4.792421 -2.260507 -3.088783 2.085766 -31.152489 1.860227 -1.168203 1.124763 -2.144479 -78.914571 4.314231 2.315673 2.984877 -29.321603 1.358468 0.000000 0.000000 0.000000 5.419927 -2.318163 -2.390764 0.982785 12.905088 2.301449 7.303829 5.871548 -1.787380 -19.179086 -56.952293 11.659019 -2.326427 52.212254 1.030707 0.000000 0.000000 0.000000 
